<svg width="9" height="9" viewBox="0 0 9 9" fill="none" xmlns="http://www.w3.org/2000/svg">
<path d="M4.125 3.375H4.875V2.625H4.125M4.5 7.5C2.84625 7.5 1.5 6.15375 1.5 4.5C1.5 2.84625 2.84625 1.5 4.5 1.5C6.15375 1.5 7.5 2.84625 7.5 4.5C7.5 6.15375 6.15375 7.5 4.5 7.5ZM4.5 0.75C4.00754 0.75 3.51991 0.846997 3.06494 1.03545C2.60997 1.22391 2.19657 1.50013 1.84835 1.84835C1.14509 2.55161 0.75 3.50544 0.75 4.5C0.75 5.49456 1.14509 6.44839 1.84835 7.15165C2.19657 7.49987 2.60997 7.77609 3.06494 7.96455C3.51991 8.153 4.00754 8.25 4.5 8.25C5.49456 8.25 6.44839 7.85491 7.15165 7.15165C7.85491 6.44839 8.25 5.49456 8.25 4.5C8.25 4.00754 8.153 3.51991 7.96455 3.06494C7.77609 2.60997 7.49987 2.19657 7.15165 1.84835C6.80343 1.50013 6.39003 1.22391 5.93506 1.03545C5.48009 0.846997 4.99246 0.75 4.5 0.75ZM4.125 6.375H4.875V4.125H4.125V6.375Z" fill="#5E83FD"/>
</svg>
